<svg width="340" height="169" viewBox="0 0 340 169" fill="none" xmlns="http://www.w3.org/2000/svg">
<g id="art-birb">
<g id="pencil">
<path d="M238.967 100.19L178.935 122.945L174.275 125.113L176.681 131.105L181.581 130.068L241.253 105.616L245.993 101.136L249.312 98L244.139 99.0949L238.967 100.19Z" fill="#717171"/>
<path d="M238.967 100.19L178.935 122.945M238.967 100.19L241.253 105.616M238.967 100.19L244.139 99.0949M178.935 122.945L181.581 130.068M178.935 122.945L174.275 125.113L176.681 131.105L181.581 130.068M181.581 130.068L241.253 105.616M241.253 105.616L245.993 101.136M244.139 99.0949L249.312 98L245.993 101.136M244.139 99.0949L245.993 101.136" stroke="black"/>
</g>
<g id="paper">
<path d="M289.721 116.004V126.444C287.517 127.154 282.034 129.85 277.736 134.95C275.089 138.091 271.425 134.382 268.099 129.81C266.684 130.455 265.508 130.291 264.925 128.763C262.859 123.35 257.954 119.484 260.379 119.484C262.129 115.875 265.93 108.89 267.136 109.818C268.244 104.869 282.654 111.88 289.721 116.004Z" fill="#D9D9D9"/>
<path d="M281.455 113.298C277.598 113.427 270.215 114.148 271.537 116.004C272.86 117.86 273.466 120.128 273.604 121.031H267.818C267.278 121.978 266.81 123.372 267.136 124.51M267.136 124.51C267.475 125.694 268.672 126.601 271.537 126.444C278.563 126.057 281.869 122.964 277.736 119.484C273.604 116.004 271.537 107.885 276.496 109.818C280.464 111.364 282.557 117.937 283.108 121.031L267.136 124.51ZM267.136 124.51C273.604 131.083 274.017 133.79 278.976 130.696C282.943 128.222 287.792 126.83 289.721 126.444M289.721 126.444V116.004C282.654 111.88 268.244 104.869 267.136 109.818M289.721 126.444C287.517 127.154 282.034 129.85 277.736 134.95C272.364 141.324 262.804 119.484 260.379 119.484M267.136 109.818C265.751 116.004 259.553 121.031 264.925 119.484C270.297 117.937 278.976 114.177 277.736 118.324C276.496 122.471 266.991 134.176 264.925 128.763C262.859 123.35 257.954 119.484 260.379 119.484M267.136 109.818C265.93 108.89 262.129 115.875 260.379 119.484" stroke="black"/>
</g>
<g id="birb">
<g id="beak-closed">
<path d="M140.434 64.9886C142.431 64.1031 146.854 64.3183 150.998 64.5252C155.106 64.7303 147.105 69.5727 141.92 71.9345C141.841 72.2167 141.789 71.9939 141.789 71.9939L142.256 68.0529L140.434 64.9886Z" fill="#BB7E5D"/>
<path d="M150.998 64.5252C146.854 64.3183 142.431 64.1031 140.434 64.9886L142.256 68.0529M150.998 64.5252C155.141 64.7321 146.969 69.655 141.789 71.9939M150.998 64.5252C148.988 65.4159 144.266 67.1622 142.256 68.0529M141.789 71.9939C141.789 71.9939 142.022 72.9965 142.256 68.0529M141.789 71.9939L142.256 68.0529" stroke="black"/>
</g>
<g id="body">
<path d="M109.565 73.1746L111.958 64.416C112.116 61.0985 123.255 56.1021 128.172 56.3476C132.636 56.5705 139.69 63.828 141.893 68.5844C142.372 69.8806 141.718 72.2705 141.718 72.2705C140.794 74.8688 139.313 77.6123 138.147 79.7724C137.684 80.6304 137.271 81.3964 136.961 82.0246L137.901 91.293C137.361 94.9214 132.038 109.476 129.415 113.624C127.646 116.166 121.339 121.072 107.881 121.406C94.4006 121.74 84.0037 119.642 80.6745 119.082C80.0653 118.778 79.4138 118.427 78.7453 118.033C74.7947 115.702 70.2502 111.851 70.3296 107.189C64.4258 108.053 55.419 107.981 51.6535 107.837C52.3627 106.446 54.6796 102.157 58.2733 96.1317C60.1942 92.911 63.666 89.6479 67.1951 86.7717C66.9705 86.5252 66.716 86.2626 66.445 85.9831C64.72 84.2039 62.328 81.7367 62.7478 78.3187C63.2335 74.3636 60.8308 71.5567 60.8308 71.5567L54.1858 51.6666L59.7741 54.5076L59.3817 39.1786L63.9659 44.7409L63.0618 31.3943C68.4211 39.6052 75.6926 56.3356 76.5372 59.7785C76.8324 60.982 77.5704 63.0723 78.4318 65.5122L78.4318 65.5122C80.0348 70.0525 82.0652 75.8033 82.4653 79.3033C85.4463 79.0113 87.852 78.9196 89.4314 78.8595L89.4316 78.8595C90.1614 78.8317 90.7147 78.8106 91.067 78.7796C92.0178 78.6958 93.1665 78.7588 98.5199 76.5689C101.895 75.1882 106.887 74.1935 109.565 73.1746Z" fill="#6B8F71"/>
<path d="M70.3296 107.189C70.2502 111.851 74.7947 115.702 78.7453 118.033C79.4138 118.427 80.0653 118.778 80.6745 119.082C84.0037 119.642 94.4006 121.74 107.881 121.406C121.339 121.072 127.646 116.166 129.415 113.624C132.038 109.476 137.361 94.9214 137.901 91.293L136.961 82.0246C137.271 81.3964 137.684 80.6304 138.147 79.7724C139.313 77.6123 140.794 74.8688 141.718 72.2705C141.718 72.2705 142.372 69.8806 141.893 68.5844C139.69 63.828 132.636 56.5705 128.172 56.3476C123.255 56.1021 112.116 61.0985 111.958 64.416L109.565 73.1746C106.887 74.1935 101.895 75.1882 98.5199 76.5689C93.1665 78.7588 92.0178 78.6958 91.067 78.7796C90.7147 78.8106 90.1613 78.8317 89.4314 78.8595C87.852 78.9196 85.4463 79.0113 82.4653 79.3033M70.3296 107.189C64.4258 108.053 55.419 107.981 51.6535 107.837C52.3627 106.446 54.6796 102.157 58.2733 96.1317M70.3296 107.189C81.6039 106.082 104.447 101.832 105.624 93.6933M58.2733 96.1317C60.1942 92.911 63.666 89.6479 67.1951 86.7717M58.2733 96.1317C61.4202 90.8554 68.7295 85.4654 73.6338 81.849M67.1951 86.7717C66.9705 86.5252 66.716 86.2626 66.445 85.9831C64.72 84.2039 62.328 81.7367 62.7478 78.3187C63.2335 74.3636 60.8308 71.5567 60.8308 71.5567L54.1858 51.6666L59.7741 54.5076L59.3817 39.1786L63.9659 44.7409L63.0618 31.3943C68.4211 39.6052 75.6926 56.3356 76.5372 59.7785C76.8324 60.982 77.5704 63.0723 78.4318 65.5122C80.0348 70.0524 82.0652 75.8033 82.4653 79.3033M67.1951 86.7717C69.4474 84.936 71.7231 83.2579 73.6338 81.849M82.4653 79.3033C81.6727 79.3809 80.2847 79.6416 78.9516 79.8919C77.4186 80.1798 75.9581 80.4541 75.5591 80.4208C74.9784 80.8575 74.3303 81.3353 73.6338 81.849" stroke="black"/>
</g>
<path id="eye" d="M131.961 66.8733C131.792 70.4389 128.63 73.2146 124.856 73.0262C121.081 72.8377 118.196 69.76 118.365 66.1944C118.534 62.6288 121.696 59.8531 125.471 60.0416C129.246 60.2301 132.13 63.3077 131.961 66.8733Z" fill="white" stroke="black"/>
<path id="left-foot" d="M79.358 117.309L77.1755 122.206L84.5163 129.79M84.5163 129.79L83.5602 131.535L81.4723 134.435L84.5332 131.584L88.3304 133.776L88.425 131.778L95.0938 135.115L84.5163 129.79Z" stroke="black"/>
<path id="right-foot" d="M92.6802 119.977L88.7565 124.787L97.7374 130.241M97.7374 130.241L97.6427 132.239L97.5954 133.238L98.5645 132.285L102.204 133.468L102.252 132.469L105.891 133.652L97.7374 130.241Z" stroke="black"/>
<path id="eyeball" d="M130.561 65.8017C130.457 68.0082 128.412 69.6991 125.994 69.5783C123.576 69.4576 121.7 67.5709 121.805 65.3644C121.909 63.1579 123.954 61.467 126.372 61.5878C128.791 61.7085 130.666 63.5952 130.561 65.8017Z" fill="black"/>
</g>
</g>
</svg>
