<svg width="60" height="60" viewBox="0 0 60 60" fill="none" xmlns="http://www.w3.org/2000/svg">
<g id="birb">
<g id="beak-open">
<path d="M48.5 19C48.8333 18 51.3 17 52.5 17C53.7 17 49.7739 19.9985 49.7739 19.9985L49.5 20C51 20 52.7083 19.8574 54.2052 19.9455C54.9111 19.987 54 21 50 22.5C49.8164 21.3984 49.7607 20.5513 49.5 20C49.1927 19.3502 48.6803 19.0902 48.5 19Z" fill="#BB7E5D"/>
<path d="M49.5 20C51 20 52.7083 19.8574 54.2052 19.9455C54.9111 19.987 54 21 50 22.5C49.8164 21.3984 49.7607 20.5513 49.5 20ZM49.5 20C49.1927 19.3502 48.6803 19.0902 48.5 19C48.8333 18 51.3 17 52.5 17C53.7 17 49.7739 19.9985 49.7739 19.9985L49.5 20Z" stroke="black"/>
</g>
<g id="beak-closed">
<path d="M49 18.4999C49.9937 18.0029 52.2468 18 54.3574 18C56.4502 18 52.5007 20.6445 49.9226 21.9667C49.8891 22.1111 49.8574 22 49.8574 22L50 19.9999L49 18.4999Z" fill="#BB7E5D"/>
<path d="M54.3574 18C52.2468 18 49.9937 18.0029 49 18.4999L50 19.9999M54.3574 18C56.468 18 52.4333 20.6895 49.8574 22M54.3574 18C53.3574 18.5 51 19.4999 50 19.9999M49.8574 22C49.8574 22 50 22.4999 50 19.9999M49.8574 22L50 19.9999" stroke="black"/>
</g>
<g id="body">
<path d="M33.5 24L34.5 19.5C34.5 17.8145 40.0095 15 42.5 15C44.7613 15 48.5 18.5 49.7268 20.8551C50 21.5 49.7268 22.7279 49.7268 22.7279C49.3221 24.0683 48.6394 25.4964 48.1019 26.6208C47.8884 27.0674 47.6978 27.4661 47.5566 27.7923L48.2532 32.4664C48.0675 34.3192 45.726 41.8309 44.5 44C43.6667 45.3333 40.5969 47.9798 33.8042 48.4895C27 49 21.6958 48.1997 20 48C19.6849 47.8614 19.3473 47.7001 19 47.5172C16.9478 46.4359 14.5591 44.599 14.4876 42.234C11.5249 42.8213 6.97162 43.0126 5.06533 43.0349C5.3904 42.3119 6.45853 40.0796 8.13031 36.9344C9.02388 35.2533 10.7002 33.5115 12.4147 31.9644C12.2953 31.8451 12.1604 31.7185 12.0168 31.5837L12.0167 31.5836C11.1024 30.7254 9.83461 29.5355 9.9649 27.7923C10.1157 25.7754 8.83423 24.4134 8.83423 24.4134L5 14.5L7.89201 15.7986L7.32667 8.03872L9.77645 10.742L9 4C11.9048 8.02618 15.98 16.3222 16.4893 18.0459C16.6673 18.6485 17.0902 19.6893 17.584 20.9042L17.584 20.9042C18.5027 23.1649 19.6665 26.0285 19.9525 27.7923C21.4519 27.5689 22.6654 27.4615 23.4621 27.3911L23.4622 27.3911C23.8303 27.3585 24.1094 27.3338 24.2867 27.3092C24.7652 27.2427 25.3472 27.2455 28 26C29.6725 25.2147 32.1712 24.5842 33.5 24Z" fill="#C7D0D7"/>
<path d="M14.4876 42.234C14.5591 44.599 16.9478 46.4359 19 47.5172C19.3473 47.7001 19.6849 47.8614 20 48C21.6958 48.1997 27 49 33.8042 48.4895C40.5969 47.9798 43.6667 45.3333 44.5 44C45.726 41.8309 48.0675 34.3192 48.2532 32.4664L47.5566 27.7923C47.6978 27.4661 47.8884 27.0674 48.1019 26.6208C48.6394 25.4964 49.3221 24.0683 49.7268 22.7279C49.7268 22.7279 50 21.5 49.7268 20.8551C48.5 18.5 44.7613 15 42.5 15C40.0095 15 34.5 17.8145 34.5 19.5L33.5 24C32.1712 24.5842 29.6725 25.2147 28 26C25.3472 27.2455 24.7652 27.2427 24.2867 27.3092C24.1094 27.3338 23.8303 27.3585 23.4621 27.3911C22.6654 27.4615 21.4519 27.5689 19.9525 27.7923M14.4876 42.234C11.5249 42.8213 6.97162 43.0126 5.06533 43.0349C5.3904 42.3119 6.45853 40.0796 8.13031 36.9344M14.4876 42.234C20.1584 41.3873 31.6 38.655 32 34.5M8.13031 36.9344C9.02388 35.2533 10.7002 33.5115 12.4147 31.9644M8.13031 36.9344C9.59419 34.1804 13.1588 31.2634 15.5505 29.3062M12.4147 31.9644C12.2953 31.8451 12.1604 31.7184 12.0167 31.5836C11.1024 30.7254 9.83461 29.5355 9.9649 27.7923C10.1157 25.7754 8.83423 24.4134 8.83423 24.4134L5 14.5L7.89201 15.7986L7.32667 8.03872L9.77645 10.742L9 4C11.9048 8.02618 15.98 16.3222 16.4893 18.0459C16.6673 18.6485 17.0902 19.6893 17.584 20.9042C18.5027 23.1649 19.6665 26.0285 19.9525 27.7923M12.4147 31.9644C13.5089 30.9769 14.6187 30.0687 15.5505 29.3062M19.9525 27.7923C19.5538 27.8518 18.8587 28.019 18.191 28.1796C17.4232 28.3644 16.6917 28.5404 16.4893 28.5336C16.2063 28.7696 15.8902 29.0282 15.5505 29.3062" stroke="black"/>
</g>
<circle id="eye" cx="41.5" cy="20.5" r="3" fill="white" stroke="black"/>
<path id="left-foot" d="M19 47.5L18 50L21.9477 53.6045M21.9477 53.6045L21.5 54.5L20.5 56L22 54.5L24 55.5V54.5L27.5 56L21.9477 53.6045Z" stroke="black"/>
<path id="right-foot" d="M26 48.5L24 51L29 53.5M29 53.5V54.5V55L29.5 54.5L31.5 55V54.5L33.5 55L29 53.5Z" stroke="black"/>
<path id="eyeball" d="M43 19.5C43 20.3284 42.3284 21 41.5 21C40.6716 21 40 20.3284 40 19.5C40 18.6716 40.6716 18 41.5 18C42.3284 18 43 18.6716 43 19.5Z" fill="black"/>
</g>
</svg>
