<svg width="398" height="477" viewBox="0 0 398 477" fill="none" xmlns="http://www.w3.org/2000/svg">
<g id="figma-easel">
<path id="canvas" d="M327 58H200.816H104L83 246H312.579L327 58Z" fill="white" stroke="black" stroke-width="2"/>
<g id="easel">
<path id="Vector 127" d="M206.97 421.236L198.524 275.122L187 275.461L193 421.236L206.97 421.236Z" fill="#BB7E5D" stroke="black" stroke-width="2"/>
<path id="Vector 123" d="M205 58L206.226 44H218L217.019 58H205Z" fill="#BB7E5D" stroke="black" stroke-width="2"/>
<path id="Vector 124" d="M322 246H74.7254L71 256H320.603L322 246Z" fill="#BB7E5D" stroke="black" stroke-width="2"/>
<g id="Vector 125">
<path d="M90 422L112.707 256H274.991V422H260.966L257.961 276.438H196.854L193.515 326.288H180.826L184.499 276.438H124.728L104.693 422H90Z" fill="#BB7E5D"/>
<path d="M112.707 256C114.71 256.997 118.584 261.184 118.049 269.958C117.515 278.732 117.827 277.934 118.049 276.438H124.728M112.707 256L90 422H104.693L124.728 276.438M112.707 256H274.991M274.991 256C268.647 264.474 268.981 263.976 267.645 267.964C266.847 270.345 266.866 275.109 266.977 276.438H257.961M274.991 256V422H260.966L257.961 276.438M124.728 276.438H184.499M257.961 276.438H196.854M184.499 276.438L180.826 326.288H193.515L196.854 276.438M184.499 276.438H196.854" stroke="black" stroke-width="2"/>
</g>
<path id="Vector 126" d="M258 327H118.636L116 347H258V327Z" fill="#BB7E5D" stroke="black" stroke-width="2"/>
</g>
<g id="text">
<path id="Vector 128" d="M142.763 110.874C141.986 105.073 140.638 99.1816 141.016 93.3067C141.113 91.793 140.691 89.116 141.42 87.7326C142.331 86.0034 151.008 86.1142 152.18 87.3036C155.753 90.9319 152.642 97.9154 148.804 100.035C146.804 101.139 144.791 101.617 142.546 101.475C141.287 101.395 145.098 101.476 146.315 101.804C147.803 102.206 149.227 103.596 150.336 104.621C152.335 106.468 152.967 109.569 153.881 111.987C154.461 113.521 154.056 116.561 155.497 117.394" stroke="black" stroke-width="3" stroke-linecap="round"/>
<path id="Vector 129" d="M169.807 93.0002C167.314 92.8423 166.529 92.9076 164.764 94.721C163.602 95.9146 163.704 98.4192 163.604 99.9752C163.287 104.908 166.759 108.421 171.121 109.497C175.336 110.537 179.109 108.14 179.401 103.606C179.579 100.831 175.204 94.1584 172.211 93.9688" stroke="black" stroke-width="3" stroke-linecap="round"/>
<path id="Vector 130" d="M192.861 92.4211C192.012 97.2051 186.013 105.918 191.955 109.707C199.307 114.394 202.283 99.3151 202.555 95.0759" stroke="black" stroke-width="3" stroke-linecap="round"/>
<path id="Vector 131" d="M217.781 94.8169C212.827 94.9936 208.649 105.818 211.494 109.495C214.832 113.809 219.933 115.615 224.87 112.405" stroke="black" stroke-width="3" stroke-linecap="round"/>
<path id="Vector 132" d="M214.923 107.286C215.106 106.332 220.941 105.281 222.039 105.288C223.313 105.297 224.84 105.069 226.088 104.819C227.213 104.594 226.068 107.766 225.987 108.168C225.654 109.834 223.788 119.682 225.628 119.798" stroke="black" stroke-width="3" stroke-linecap="round"/>
<path id="Vector 133" d="M235.566 93.087C235.421 95.3402 231.669 114.876 236.201 115.164" stroke="black" stroke-width="3" stroke-linecap="round"/>
<path id="Vector 134" d="M247.594 91.4009C247.319 95.6683 247.045 99.9358 246.771 104.203C246.618 106.578 244.695 117.124 246.688 118.277" stroke="black" stroke-width="3" stroke-linecap="round"/>
<path id="Vector 135" d="M233.963 105.228C234.238 103.794 241.945 103.694 243.1 103.767C245.01 103.888 246.92 104.009 248.831 104.13" stroke="black" stroke-width="3" stroke-linecap="round"/>
<path id="Vector 136" d="M148.275 136.372C147.891 142.348 146.278 148.254 145.897 154.177" stroke="black" stroke-width="3" stroke-linecap="round"/>
<path id="Vector 137" d="M149.938 136.07C152.774 136.249 157.94 135.88 160.12 137.531" stroke="black" stroke-width="3" stroke-linecap="round"/>
<path id="Vector 138" d="M147.699 145.314C150.024 145.584 152.271 146.012 154.632 146.161" stroke="black" stroke-width="3" stroke-linecap="round"/>
<path id="Vector 139" d="M169.893 138.967C169.051 144.033 168.823 149.217 168.49 154.385" stroke="black" stroke-width="3" stroke-linecap="round"/>
<path id="Vector 140" d="M190.744 140.696C188.823 140.103 186.946 140.048 184.948 139.921C183.502 139.829 183.251 140.617 182.16 141.377C179.559 143.185 178.381 147.586 178.191 150.533C177.978 153.856 178.959 156.924 182.212 158.315C185.186 159.587 188.899 158.487 190.979 156.218" stroke="black" stroke-width="3" stroke-linecap="round"/>
<path id="Vector 141" d="M183.436 152.067C185.724 151.322 188.605 151.471 190.995 151.345C192.217 151.28 191.558 153.602 191.507 154.392C191.427 155.645 191.165 160.718 192.738 160.818" stroke="black" stroke-width="3" stroke-linecap="round"/>
<path id="Vector 142" d="M201.543 158.112C201.674 156.072 201.806 154.033 201.937 151.993C201.974 151.413 202.328 144.471 203.485 145.675C204.836 147.082 205.989 148.906 206.747 150.688C207.668 152.852 208.074 151.907 209.343 150.445C211.08 148.446 213.24 146.839 215.278 145.153C216.766 143.923 216.406 145.326 216.564 146.822C216.85 149.528 216.832 152.272 216.93 154.984C216.972 156.146 216.372 157.842 217.125 158.692" stroke="black" stroke-width="3" stroke-linecap="round"/>
<path id="Vector 143" d="M228.1 160.612C228.364 156.504 231.522 152.528 232.971 148.769C233.349 147.79 235.603 142.762 236.014 143.362C238.167 146.505 238.714 150.745 239.391 154.413C240.005 157.74 239.953 161.649 239.736 165.022" stroke="black" stroke-width="3" stroke-linecap="round"/>
<path id="Vector 144" d="M231.279 155.916L237.42 156.305" stroke="black" stroke-width="3" stroke-linecap="round"/>
<path id="Vector 145" d="M118.439 183.423C118.071 189.138 117.695 194.999 117.328 200.696C117.216 202.442 116.869 206.121 118.561 207.099" stroke="black" stroke-width="3" stroke-linecap="round"/>
<path id="Vector 146" d="M117.62 183.371C120.551 183.386 124.263 181.817 126.795 184.157C129.256 186.43 129.585 189.066 129.366 192.481C128.93 199.251 127.391 206.454 120.094 208.829" stroke="black" stroke-width="3" stroke-linecap="round"/>
<path id="Vector 147" d="M141.285 186.095L153.975 186.899" stroke="black" stroke-width="3" stroke-linecap="round"/>
<path id="Vector 148" d="M139.517 188.024C139.24 192.329 138.963 196.634 138.686 200.939C138.307 206.842 145.797 208.272 149.907 205.414" stroke="black" stroke-width="3" stroke-linecap="round"/>
<path id="Vector 149" d="M139.76 197.017C140.151 196.155 148.213 196.488 149.664 196.42" stroke="black" stroke-width="3" stroke-linecap="round"/>
<path id="Vector 150" d="M167.788 189.408C167.394 187.927 161.34 187.409 161.211 189.421C161.034 192.167 163.154 193.822 164.817 195.839C166.748 198.181 167.059 200.748 166.875 203.61C166.718 206.044 161.044 205.303 159.374 205.197" stroke="black" stroke-width="3" stroke-linecap="round"/>
<path id="Vector 151" d="M177.413 186.752C177.083 191.883 176.411 196.971 176.016 202.08C175.967 202.725 175.418 207.363 176.106 207.074" stroke="black" stroke-width="3" stroke-linecap="round"/>
<path id="Vector 152" d="M202.95 185.923C200.516 185.007 196.214 184.41 193.912 185.849C189.562 188.567 188.156 192.979 187.833 198.001C187.231 207.365 197.045 207.993 203.969 208.432" stroke="black" stroke-width="3" stroke-linecap="round"/>
<path id="Vector 153" d="M196.331 199.378C198.486 199.277 200.714 199.034 202.912 198.956C204.774 198.889 204.5 200.178 204.386 201.951C204.14 205.784 204.31 209.524 204.065 213.334" stroke="black" stroke-width="3" stroke-linecap="round"/>
<path id="Vector 154" d="M215.997 187.566C215.522 194.951 213.423 202.03 212.948 209.409" stroke="black" stroke-width="3" stroke-linecap="round"/>
<path id="Vector 155" d="M215.153 187.92C215.995 188.978 216.3 190.357 217 191.506C218.153 193.398 219.593 195.174 220.92 196.946C223.76 200.737 227.725 203.561 231.014 206.881C231.366 207.236 231.355 204.425 231.393 203.822C231.539 201.554 231.458 199.374 231.323 197.107C231.05 192.506 231.597 187.865 231.893 183.268" stroke="black" stroke-width="3" stroke-linecap="round"/>
<path id="Vector 156" d="M252.099 188.629C249.77 186.525 242.857 185.934 241.059 189.154C238.506 193.728 243.398 198.016 245.5 201.769C247.443 205.237 246.744 209.794 246.385 213.568C246.049 217.107 237.046 216.723 235.176 215.306" stroke="black" stroke-width="3" stroke-linecap="round"/>
<path id="Vector 157" d="M278.132 191.515C276.452 191.409 273.274 190.351 273.141 192.423C273.023 194.254 273.23 195.991 273.211 197.732C273.185 200.041 274.148 202.331 274 204.629C273.951 205.401 274.091 206.603 274.258 207.366C274.378 207.914 274.288 209.335 274.533 209.832C275.097 210.974 283.344 210.617 284.503 210.69C286.898 210.842 289.294 210.994 291.689 211.146C292.374 211.189 295.682 211.834 295.786 210.997C295.911 209.993 295.917 208.959 295.982 207.949C296.117 205.861 295.445 203.523 295.569 201.598" stroke="black" stroke-width="3" stroke-linecap="round"/>
<path id="Vector 158" d="M281.44 203.966C281.772 202.236 286.034 199.186 287.372 198.017C288.307 197.2 289.552 195.769 290.164 194.725C291.374 192.662 292.036 193.212 289.745 193.067C288.466 192.985 287.38 193.325 286.08 193.242C284.795 193.161 288.736 193.614 289.944 193.17C290.653 192.909 293.277 192.482 293.212 193.49C293.132 194.738 293.183 195.892 292.58 196.919" stroke="black" stroke-width="3" stroke-linecap="round"/>
</g>
</g>
</svg>
