<svg width="96" height="63" viewBox="0 0 96 63" fill="none" xmlns="http://www.w3.org/2000/svg">
<path d="M25.6156 11.8112C8.31008 18.4528 6.71877 42.7547 8.0863 54.0755C61.0471 66.9056 59.1823 54.0755 77.4575 36.717C92.0776 22.8303 95.2354 7.78621 94.9868 2C93.8679 3.13204 89.5415 5.84896 81.1871 7.66028C70.7441 9.92444 47.2475 3.50933 25.6156 11.8112Z" fill="#445F49"/>
<path d="M1 62L8.0863 54.0755M8.0863 54.0755C6.71877 42.7547 8.31008 18.4528 25.6156 11.8112C47.2475 3.50933 70.7441 9.92444 81.1871 7.66028C89.5415 5.84896 93.8679 3.13204 94.9868 2C95.2354 7.78621 92.0776 22.8303 77.4575 36.717C59.1823 54.0755 61.0471 66.9056 8.0863 54.0755ZM8.0863 54.0755C39.7136 32.0378 50.6041 27.4639 63.6578 23.8868C81.5601 18.9812 89.6161 13.844 90.5112 9.54718" stroke="grey"/>
</svg>
